<svg xmlns="http://www.w3.org/2000/svg" xmlns:xlink="http://www.w3.org/1999/xlink" width="49.896" height="24.377" viewBox="0 0 49.896 24.377"><defs><clipPath id="a"><rect width="49.896" height="24.377" transform="translate(-169.47 3496.16)" fill="#340868"/></clipPath></defs><g transform="translate(169.47 -3496.16)" clip-path="url(#a)"><path d="M7.618,20.14H4.285V9.38H7.618ZM7.951,5.951A1.952,1.952,0,1,0,6,7.9,1.952,1.952,0,0,0,7.951,5.951ZM20.092,14.22c0-2.889-.61-5.031-3.985-5.031a3.459,3.459,0,0,0-3.154,1.654h0V9.38H9.713V20.14H12.95V14.8c0-1.4.356-2.755,2.09-2.755,1.711,0,1.766,1.6,1.766,2.844V20.14h3.285Zm4.285,7.3V2.857A2.86,2.86,0,0,0,21.521,0H2.857A2.86,2.86,0,0,0,0,2.857V21.521a2.86,2.86,0,0,0,2.857,2.857H21.521A2.86,2.86,0,0,0,24.377,21.521ZM21.521,1.9a.953.953,0,0,1,.952.952V21.521a.953.953,0,0,1-.952.952H2.857a.953.953,0,0,1-.952-.952V2.857A.953.953,0,0,1,2.857,1.9Zm0,0" transform="translate(-156.711 3496.16)" fill="#340868"/></g></svg>