<svg xmlns="http://www.w3.org/2000/svg" width="20.102" height="28.589" viewBox="0 0 20.102 28.589"><g transform="translate(-76)"><path d="M86.051,0A10.059,10.059,0,0,0,76,10.051a9.911,9.911,0,0,0,1.508,5.277l7.862,12.866a.794.794,0,0,0,.57.385.834.834,0,0,0,.854-.4l7.884-12.983A9.913,9.913,0,0,0,96.1,10.051,10.059,10.059,0,0,0,86.051,0Zm0,15.076a5.025,5.025,0,1,1,5.025-5.025A5.019,5.019,0,0,1,86.051,15.076Z" fill="#fd003a"/><path d="M256,0V5.025a5.025,5.025,0,1,1,0,10.051V28.588a.829.829,0,0,0,.743-.412l7.884-12.983a9.912,9.912,0,0,0,1.424-5.143A10.059,10.059,0,0,0,256,0Z" transform="translate(-169.949)" fill="#e50027"/></g></svg>