<svg xmlns="http://www.w3.org/2000/svg" width="11.912" height="18.181" viewBox="0 0 11.912 18.181"><g transform="translate(-88.276)" opacity="0.293"><g transform="translate(88.276)"><path d="M302.332,194.207a2.194,2.194,0,1,0,2.194,2.194A2.2,2.2,0,0,0,302.332,194.207Z" transform="translate(-292.615 -187.311)"/><path d="M196.4,101.493a2.194,2.194,0,1,0-2.194-2.194A2.2,2.2,0,0,0,196.4,101.493Z" transform="translate(-190.445 -93.656)"/><path d="M90.47,4.389a2.194,2.194,0,1,0-2.194-2.194A2.2,2.2,0,0,0,90.47,4.389Z" transform="translate(-88.276)"/><path d="M196.4,291.31A2.194,2.194,0,1,0,198.6,293.5,2.2,2.2,0,0,0,196.4,291.31Z" transform="translate(-190.445 -280.965)"/><path d="M90.47,388.414a2.194,2.194,0,1,0,2.194,2.194A2.2,2.2,0,0,0,90.47,388.414Z" transform="translate(-88.276 -374.621)"/></g></g></svg>