<?xml version="1.0" encoding="utf-8"?>
<!-- Generator: Adobe Illustrator 22.0.0, SVG Export Plug-In . SVG Version: 6.00 Build 0)  -->
<svg version="1.1" id="Layer_1" xmlns="http://www.w3.org/2000/svg" xmlns:xlink="http://www.w3.org/1999/xlink" x="0px" y="0px"
	 viewBox="0 0 91 91" style="enable-background:new 0 0 91 91;" xml:space="preserve">
<style type="text/css">
	.st0{fill:#FFFFFF;stroke:#EAEAEA;stroke-miterlimit:10;}
	.st1{fill:#0070CC;}
	.st2{fill:#027FD3;}
	.st3{fill:#008BE0;}
	.st4{fill:#ACE4F9;}
	.st5{fill:#FFFFFF;}
</style>
<g>
	<circle class="st0" cx="45.5" cy="45.5" r="45"/>
	<g>
		<g>
			<path class="st1" d="M90,45.5C90,70,70.1,90,45.5,90C21,90,1.1,70,1.1,45.5S21,1,45.6,1C70.1,1,90,20.9,90,45.5z"/>
		</g>
		<g>
			<path class="st2" d="M45.6,3.9v83.1c23,0,41.6-18.6,41.6-41.6C87.1,22.5,68.5,3.9,45.6,3.9z"/>
		</g>
		<g>
			<path class="st3" d="M4,45.5C4,68.4,22.6,87,45.6,87V3.9C22.6,3.9,4,22.5,4,45.5z"/>
		</g>
		<g>
			<polygon class="st4" points="45.9,20.1 45.9,65.9 62.6,65.9 62.6,44.4 74.8,44.4 			"/>
		</g>
		<g>
			<polygon class="st5" points="45.2,20.1 45.2,65.9 28.5,65.9 28.5,44.4 16.3,44.4 			"/>
		</g>
		<g>
			<path class="st2" d="M53.9,46.3c0-4-3.6-7.3-8-7.3c-4.4,0-8,3.3-8,7.3c0,4,3.6,7.3,8,7.3c0.9,0,1.9-0.2,2.8-0.5l-0.1,0.1l4.1,1.5
				l-0.5-3.9C53.3,49.6,53.9,47.7,53.9,46.3z"/>
		</g>
		<g>
			<polygon class="st3" points="51.5,50.5 51.8,53.6 48.8,52.5 			"/>
		</g>
		<g>
			<path class="st3" d="M38.6,46.3c0,3.5,3.1,6.4,6.9,6.6V39.7C41.7,39.9,38.6,42.8,38.6,46.3z"/>
		</g>
		<g>
			<path class="st3" d="M51.3,50.8c1.2-1.2,1.9-2.8,1.9-4.5c0-3.7-3.3-6.6-7.3-6.6c-0.1,0-0.3,0-0.4,0v13.2c0.1,0,0.3,0,0.4,0
				c1.2,0,2.4-0.3,3.4-0.8C49.7,52,51.1,51.1,51.3,50.8z"/>
		</g>
	</g>
</g>
</svg>
