<svg xmlns="http://www.w3.org/2000/svg" width="151" height="152" viewBox="0 0 151 152">
    <g fill="none" fill-rule="evenodd" transform="translate(1 1)">
        <circle cx="74.637" cy="75.06" r="74.577" fill="#FFF" stroke="#EAEAEA"/>
        <circle cx="74.637" cy="75.06" r="74.577" fill="#020202" fill-rule="nonzero"/>
        <path fill="#FFF" fill-rule="nonzero" d="M46.996 74.093c0-17.843 13.609-30.182 29.94-30.182 10.705 0 19.899 5.02 24.919 12.158l-7.258 6.955c-4.174-5.14-10.101-8.77-17.178-8.77-10.705 0-19.354 8.286-19.354 19.839 0 11.25 8.407 19.355 19.294 19.355 7.137 0 13.306-3.448 17.48-8.77l7.44 6.713c-5.142 6.956-14.396 12.278-25.464 12.278-16.573 0-29.819-11.854-29.819-29.576zM77.116.478h-4.233v29.637h4.234V.478zm0 119.522h-4.233v29.698h4.234V120z"/>
    </g>
</svg>
