<svg id="Layer_1" data-name="Layer 1" xmlns="http://www.w3.org/2000/svg" xmlns:xlink="http://www.w3.org/1999/xlink" viewBox="0 0 151 151"><defs><style>.cls-1{fill:none;}.cls-2{fill:#1d7cf3;stroke:#eaeaea;stroke-miterlimit:10;}.cls-3,.cls-5{fill:#fff;}.cls-3{opacity:0.7;}.cls-4{clip-path:url(#clip-path);}</style><clipPath id="clip-path"><path class="cls-1" d="M49.54,102c-5.32-5.45-8-12.62-8-21.53a44.4,44.4,0,0,1,4.7-20.91,35.58,35.58,0,0,1,12.19-13.8A28.76,28.76,0,0,1,74.1,40.92c5.38,0,9.59,1.61,12.56,4.76a17.26,17.26,0,0,1,4.45,12.25,19.15,19.15,0,0,1-2.72,10.46c-1.79,2.84-4.21,4.26-7.11,4.26a7.06,7.06,0,0,1-4.46-1.3,4.38,4.38,0,0,1-1.67-3.65,12.17,12.17,0,0,1,.31-2.35c.19-.86.37-1.54.44-1.91a13.24,13.24,0,0,0,.74-4.15,4.37,4.37,0,0,0-.93-3,3.55,3.55,0,0,0-2.72-1,8.62,8.62,0,0,0-6.31,3A20.66,20.66,0,0,0,62,66.47a34.59,34.59,0,0,0-1.8,11.32q0,17.07,14.85,17.07c4,0,9.65-3.09,14.29-5.81s14.41-11.14,15.46-12.13c1.3-1.3,3.9-3.77,6.25-1.42,3.22,3.22-10.88,21.59-20.54,28.21-5.87,4-12.62,6.37-18.62,6.37C62.41,110.14,54.92,107.42,49.54,102Z"/></clipPath></defs><title>Logo</title><circle class="cls-2" cx="75.5" cy="75.5" r="75"/><path class="cls-3" d="M49.54,102c-5.32-5.45-8-12.62-8-21.53a44.4,44.4,0,0,1,4.7-20.91,35.58,35.58,0,0,1,12.19-13.8A28.76,28.76,0,0,1,74.1,40.92c5.38,0,9.59,1.61,12.56,4.76a17.26,17.26,0,0,1,4.45,12.25,19.15,19.15,0,0,1-2.72,10.46c-1.79,2.84-4.21,4.26-7.11,4.26a7.06,7.06,0,0,1-4.46-1.3,4.38,4.38,0,0,1-1.67-3.65,12.17,12.17,0,0,1,.31-2.35c.19-.86.37-1.54.44-1.91a13.24,13.24,0,0,0,.74-4.15,4.37,4.37,0,0,0-.93-3,3.55,3.55,0,0,0-2.72-1,8.62,8.62,0,0,0-6.31,3A20.66,20.66,0,0,0,62,66.47a34.59,34.59,0,0,0-1.8,11.32q0,17.07,14.85,17.07c4,0,9.65-3.09,14.29-5.81s14.41-11.14,15.46-12.13c1.3-1.3,3.9-3.77,6.25-1.42,3.22,3.22-10.88,21.59-20.54,28.21-5.87,4-12.62,6.37-18.62,6.37C62.41,110.14,54.92,107.42,49.54,102Z"/><g class="cls-4"><path class="cls-3" d="M63.52,109C56.16,106.24,51,100.92,48,93a36.55,36.55,0,0,1,6.12-37.49A36,36,0,0,1,69,45.06c5.63-2.1,10.51-2.35,14.72-.68a15,15,0,0,1,8.78,9.16,15.73,15.73,0,0,1,.62,10.33,9.43,9.43,0,0,1-6,6.56A8.54,8.54,0,0,1,82,71a4,4,0,0,1-3-2.59,10.25,10.25,0,0,1-.5-2.23q-.09-1.3-.18-1.86a11.2,11.2,0,0,0-.62-4,3.73,3.73,0,0,0-2-2.22,4.35,4.35,0,0,0-3.16.12,10.75,10.75,0,0,0-5.62,5.13,20.4,20.4,0,0,0-2.23,9.1,29,29,0,0,0,1.92,10.76c3.77,10.15,10.82,13.24,21.15,9.41,4.21-1.55,9-6.56,13-10.77S112.15,66.34,112.89,65c.93-1.67,2.84-4.88,6.06-3.71,4.46,1.61-4.21,23.45-12.06,33.16-4.77,5.88-11.08,10.64-17.32,12.93C79.67,111.26,71,111.75,63.52,109Z"/></g><g class="cls-4"><path class="cls-5" d="M59.19,99C54.68,95.54,52,90.47,51,83.85a33.9,33.9,0,0,1,1.3-16,27.36,27.36,0,0,1,7.61-11.51A21.37,21.37,0,0,1,71,51.13c4-.56,8.66-.19,11.2,1.85a14.29,14.29,0,0,1,5.07,9c.43,3,.74,6.19-.31,8.48s-5.14,3.15-7.3,3.46a5.69,5.69,0,0,1-3.47-.49,3.17,3.17,0,0,1-1.6-2.54,7.61,7.61,0,0,1,0-1.79c.06-.68.12-1.18.12-1.49a10.56,10.56,0,0,0,.12-3.15,3.52,3.52,0,0,0-1-2.11,2.65,2.65,0,0,0-2.1-.49,6.54,6.54,0,0,0-4.39,2.91,16.58,16.58,0,0,0-2.66,6.55,26.48,26.48,0,0,0-.13,8.6C65.75,88.37,70,92.08,77.38,91c3-.44,6.87-3.34,10-5.82s9.53-9.77,10.21-10.64c.86-1.11,7-4,9-2.41C109.3,74.2,96.31,90,89.81,96a25.68,25.68,0,0,1-13.11,6.68C69.52,103.77,63.71,102.53,59.19,99Z"/></g></svg>