<?xml version="1.0" encoding="utf-8"?>
<!-- Generator: Adobe Illustrator 22.0.0, SVG Export Plug-In . SVG Version: 6.00 Build 0)  -->
<svg version="1.1" id="Layer_1" xmlns="http://www.w3.org/2000/svg" xmlns:xlink="http://www.w3.org/1999/xlink" x="0px" y="0px"
	 viewBox="0 0 91 91" style="enable-background:new 0 0 91 91;" xml:space="preserve">
<style type="text/css">
	.st0{fill:url(#SVGID_1_);stroke:#EAEAEA;stroke-miterlimit:10;}
	.st1{fill:#FFFFFF;}
</style>
<g>
	<linearGradient id="SVGID_1_" gradientUnits="userSpaceOnUse" x1="0.5" y1="45.5" x2="90.5" y2="45.5">
		<stop  offset="0" style="stop-color:#150DC4"/>
		<stop  offset="0.2515" style="stop-color:#290BC7"/>
		<stop  offset="0.7357" style="stop-color:#4A07CB"/>
		<stop  offset="1" style="stop-color:#5705CD"/>
	</linearGradient>
	<circle class="st0" cx="45.5" cy="45.5" r="45"/>
	<g>
		<g>
			<path class="st1" d="M30.9,55.6c-1.9-1-3.3-2.5-4.3-4.2c-1.1-1.7-1.6-3.7-1.6-5.8s0.5-4,1.6-5.7c1.1-1.9,2.5-3.2,4.3-4.2
				c1.9-1,3.8-1.5,5.9-1.5c2.3,0,4.4,0.5,6.3,1.6c1.9,1.1,3.3,2.7,4.4,4.7l-5.4,2.1c-0.6-1.1-1.5-1.9-2.3-2.5c-1-0.5-2-0.9-3.1-0.9
				c-1.6,0.1-3,0.7-4.1,1.9c-1.1,1.1-1.7,2.6-1.7,4.4c0,1.7,0.6,3.2,1.7,4.4c1.1,1.2,2.6,1.7,4.3,1.7c2.3,0,4.2-1.1,5.6-3.2l5.1,2
				c-2.1,4.3-5.7,6.4-10.6,6.4C34.7,57.1,32.7,56.6,30.9,55.6z"/>
			<path class="st1" d="M63.2,40.3c-1.1,0.2-2.2,1-3.2,2c-1,1-1.5,2.6-1.5,4.6v9.8h-5.9V34.4h5.9v3c1-1.4,2.2-2.2,3.6-2.7
				c1.5-0.5,2.7-0.7,4-0.6v5.8C65.3,39.9,64.3,40,63.2,40.3z"/>
		</g>
	</g>
</g>
</svg>
