<?xml version="1.0" encoding="utf-8"?>
<!-- Generator: Adobe Illustrator 22.0.0, SVG Export Plug-In . SVG Version: 6.00 Build 0)  -->
<svg version="1.1" id="Layer_1" xmlns="http://www.w3.org/2000/svg" xmlns:xlink="http://www.w3.org/1999/xlink" x="0px" y="0px"
	 viewBox="0 0 91 91" style="enable-background:new 0 0 91 91;" xml:space="preserve">
<style type="text/css">
	.st0{fill:#FFFFFF;stroke:#EAEAEA;stroke-miterlimit:10;}
	.st1{fill:#8DBB3F;}
	.st2{fill:#6AAE45;}
	.st3{opacity:0.75;fill:#538E40;}
	.st4{fill:#CF7E29;}
	.st5{fill:#F8CA11;}
	.st6{fill:#E6AF22;}
	.st7{fill:#EAC521;}
	.st8{fill:#DCA528;}
	.st9{fill:#DAB029;}
</style>
<g>
	<circle class="st0" cx="45.5" cy="45.5" r="45"/>
	<g>
		<g>
			<path class="st1" d="M90,45.5C90,20.9,70.1,1,45.5,1C34.8,1,24.9,4.8,17.3,11.1l56.1,69C83.5,72,90,59.5,90,45.5z"/>
			<path class="st2" d="M17.3,11.1C7.3,19.3,1,31.6,1,45.5C1,70.1,20.9,90,45.5,90c10.6,0,20.3-3.7,27.9-9.8L17.3,11.1z"/>
			<path class="st3" d="M45.5,10.3c-8.3,0-15.9,2.9-21.9,7.7c-8.1,6.4-13.2,16.3-13.2,27.5c0,19.4,15.7,35.2,35.2,35.2
				c9.2,0,17.6-3.6,23.9-9.4c6.9-6.4,11.2-15.6,11.2-25.8C80.7,26.1,64.9,10.3,45.5,10.3z"/>
			<polygon class="st4" points="21.4,33.3 45.4,45.2 69.6,33.3 60,56 31,57.7 			"/>
			<polygon class="st5" points="45.4,25 32,46.3 21.4,33.3 28.3,60 45.3,60 45.5,60 45.5,60 45.5,24.9 			"/>
			<polygon class="st6" points="69.6,33.3 59.2,46.1 45.5,24.9 45.5,24.9 45.5,60 62.4,60 			"/>
			<path class="st7" d="M51.5,49.7c0-3.3-2.7-6-6-6c-3.3,0-6,2.7-6,6c0,3.3,2.7,6,6,6C48.8,55.8,51.5,53.1,51.5,49.7z"/>
			<path class="st8" d="M50.7,49.7c0-2.9-2.3-5.2-5.2-5.2v10.4C48.4,54.9,50.7,52.5,50.7,49.7z"/>
			<path class="st9" d="M45.5,44.4c-2.9,0-5.2,2.3-5.2,5.2c0,2.9,2.3,5.2,5.2,5.2c0,0,0,0,0,0L45.5,44.4
				C45.5,44.4,45.5,44.4,45.5,44.4z"/>
		</g>
	</g>
</g>
</svg>
