<?xml version="1.0" encoding="utf-8"?>
<!-- Generator: Adobe Illustrator 22.0.0, SVG Export Plug-In . SVG Version: 6.00 Build 0)  -->
<svg version="1.1" id="Layer_1" xmlns="http://www.w3.org/2000/svg" xmlns:xlink="http://www.w3.org/1999/xlink" x="0px" y="0px"
	 viewBox="0 0 91 91" style="enable-background:new 0 0 91 91;" xml:space="preserve">
<style type="text/css">
	.st0{fill:url(#SVGID_1_);stroke:#EAEAEA;stroke-miterlimit:10;}
	.st1{fill:#AA0B0B;}
	.st2{fill:#FFFFFF;}
	.st3{fill:none;}
</style>
<g>
	<linearGradient id="SVGID_1_" gradientUnits="userSpaceOnUse" x1="0.5" y1="45.5" x2="90.5" y2="45.5">
		<stop  offset="0" style="stop-color:#9A0000"/>
		<stop  offset="1" style="stop-color:#C90303"/>
	</linearGradient>
	<circle class="st0" cx="45.5" cy="45.5" r="45"/>
	<g>
		<path class="st1" d="M56.9,30h-5.7l7.2,1.6l2.8,2.2c5.3,0,5.3,5.2,5.3,10.5c0,5.3-4.3,9.6-9.6,9.6l-4.6,0l0,0l0,0l-1,0l0,2.3
			l-3.3,9l3.3,2.7l5.4-9.4h0.3c7.9,0,14.3-6.4,14.3-14.3C71.2,36.4,64.8,30,56.9,30z"/>
		<g>
			<path class="st2" d="M39.3,51.2c-5.3,0-9.6-4.3-9.6-9.6c0-5.3,4.3-9.6,9.6-9.6l5.7,0v-4.7h-5.7c-7.9,0-14.3,6.4-14.3,14.3
				c0,7.9,6.4,14.3,14.3,14.3H45l0-4.7L39.3,51.2z"/>
			<path class="st2" d="M53.6,27.3h-5.7V32l5.7,0c5.3,0,9.6,4.3,9.6,9.6c0,5.3-4.3,9.6-9.6,9.6l-5.7,0l0,14.1l5.4-9.4h0.3
				c7.9,0,14.3-6.4,14.3-14.3C67.9,33.7,61.5,27.3,53.6,27.3z"/>
		</g>
		<path class="st3" d="M47.9,65.3l3.9,2.7L47.9,65.3z"/>
	</g>
</g>
</svg>
