<?xml version="1.0" encoding="utf-8"?>
<!-- Generator: Adobe Illustrator 22.0.0, SVG Export Plug-In . SVG Version: 6.00 Build 0)  -->
<svg version="1.1" id="Layer_1" xmlns="http://www.w3.org/2000/svg" xmlns:xlink="http://www.w3.org/1999/xlink" x="0px" y="0px"
	 viewBox="0 0 91 91" style="enable-background:new 0 0 91 91;" xml:space="preserve">
<style type="text/css">
	.st0{fill:#6DBD4B;stroke:#EAEAEA;stroke-miterlimit:10;}
	.st1{fill:#FFFFFF;}
	.st2{fill:#AD4525;}
</style>
<g>
	<circle class="st0" cx="45.5" cy="45.5" r="45"/>
	<g>
		<path class="st1" d="M44.2,25c0,0-8.7-0.9-12.4-1.1c-3.7-0.1-3.3,2-3.3,3.5c0,1.5-0.4,30.8-0.4,30.8l6.7-0.9l-0.6-11.8l6.4-0.5
			l-0.1-6.7L34,39.2l-0.2-8.1c0,0,1.4-0.1,3.4,0.1c2,0.2,1.7,4.1,1.7,4.1l4.4,0.1L44.2,25z"/>
		<path class="st1" d="M45.9,25.5l6.4,0.6c0,0-0.1,21.9-0.2,23.1c-0.1,1.2,1.1,1.8,2.4,1.8c1.3-0.1,1.8-1,1.8-3.7S55.4,26,55.4,26
			l5.5-0.2c0,0,1.8,27.2,1.8,29c0.1,1.8-1.7,3.4-7.1,3.6c-5.4,0.2-9.7,1-9.7-4.2S45.9,25.5,45.9,25.5"/>
		<path class="st2" d="M68.1,60.6c-1.8-3.4-6.6-4.4-8.9-0.9c-1.8,2.9,1.7,7.9,4.7,4.7c-2.8,2.5-5.7-2-3.4-4.3
			c3.7-3.5,7.6,2.6,4.5,5.7c-2.3,2-5.4,1.1-7-1.1c-3.3-4.3-6.3-10.4-12.4-8.5c-6-1.9-9.2,4.2-12.4,8.5c-1.7,2.1-4.8,3.1-7,1.1
			c-3.2-3.2,0.8-9.2,4.5-5.7c2.3,2.3-0.6,6.6-3.4,4.3c3,3.3,6.3-1.8,4.7-4.7c-2.3-3.5-7.1-2.4-8.9,0.9c-1.4,2.8-0.7,6.1,1.6,8.1
			c2.9,2.7,6.9,2,10.5,0.5c3.2-1.4,8.1-4.3,10.5-7c2.5,2.8,7.3,5.7,10.5,7c3.6,1.5,7.6,2.2,10.5-0.5C68.8,66.8,69.5,63.4,68.1,60.6"
			/>
	</g>
</g>
</svg>
