<?xml version="1.0" encoding="utf-8"?>
<!-- Generator: Adobe Illustrator 22.0.0, SVG Export Plug-In . SVG Version: 6.00 Build 0)  -->
<svg version="1.1" id="Layer_1" xmlns="http://www.w3.org/2000/svg" xmlns:xlink="http://www.w3.org/1999/xlink" x="0px" y="0px"
	 viewBox="0 0 91 91" style="enable-background:new 0 0 91 91;" xml:space="preserve">
<style type="text/css">
	.st0{fill:#971B4A;stroke:#EAEAEA;stroke-miterlimit:10;}
	.st1{fill:#FFFFFF;}
</style>
<g>
	<circle class="st0" cx="45.5" cy="45.5" r="45"/>
	<path class="st1" d="M58.5,48.8c0,0,0,0.1,0,0.1c0,0-0.1,0-0.1,0c-1,0-1.9-0.1-2.8-0.4c-0.2-0.1-0.4-0.3-0.4-0.5
		c-0.1-1.8-0.1-3.5,0-5.7c0-0.2,0.2-0.3,0.3-0.3c1.1,0,2,0.2,3.1,0.6C58.4,44.5,58.4,46.8,58.5,48.8 M64.3,41.8
		c0.1-0.6,0.2-1,0.2-1.4c0-1.2-1.7-2.7-3.5-3c-1-0.2-1.6,0.7-1.9,1.9C58.1,38.5,57.3,38,56,38c-2.3,0-6.3,2.5-6.3,6.3v4.5
		c0,0,0,0.1,0,0.1c0,0-0.1,0-0.1,0c-0.8,0-2-0.2-2.7-0.5c-0.1,0-0.2-0.1-0.2-0.3v-4.5c0-0.3,0-0.5,0.1-0.8c0.2-0.8,0.5-2.2,0.5-2.7
		c0-1.6-3.9-2.4-7.7-2.4c-0.6,0-1.2,0-1.8,0l-0.1-5.9c0,0,0-0.1,0-0.1c0,0,0.1,0,0.1,0c1.4,0,3.1,0.5,3.8,0.9
		c0.1,0.1,0.1,0.1,0.1,0.2l-0.2,1.9c0,0.1,0,0.2,0.1,0.3c1,0.7,2.8,1,3.8,1c0.3,0,0.5,0,0.6-0.1c0.1,0,0.2-0.1,0.2-0.1
		c1-1.7,1.7-3.3,1.9-5.9c0-0.2-0.1-0.4-0.2-0.5c-2.8-1.6-6-2.7-8-2.7c-4.2,0-8.2,4.1-8.1,7.7l0,4.1l0,0c-1.2,1.4-2.2,3.2-2.2,4
		c0,0.4,0.3,0.6,0.8,0.6c0.3,0,0.9-0.1,1.5-0.2l0.1,6.3c0,0,0.1,4.2,0.3,6.6c0,0.1,0,0.1-0.1,0.1c0,0-0.1,0-0.2,0
		c-1.1-0.7-2.1-1.6-3.1-2.7c-0.1-0.1-0.3-0.1-0.5,0c-1.3,1.1-1.9,2.4-2,4.2c0,0.1,0,0.2,0.1,0.2c1.3,1.3,3.4,2.4,5,2.4
		c3.1,0,6.6-3.1,6.5-6.2l-0.2-11.6c0.5,0,1,0,1.5,0c0.5,0,1.2,0.1,1.7,0.2c0.1,0,0.2,0.1,0.2,0.2V47c0,0.2,0,0.5-0.1,0.7
		c-0.1,0.7-0.3,2.2-0.3,2.3c0,0.3,0.1,0.5,0.3,0.7c1.1,1,4.2,2.5,6.7,2.5c0.2,0,0.3-0.1,0.5-0.2c0.7-0.6,1.2-1.6,1.6-2.5
		c0.7,1.4,3.3,2.4,5.1,2.4c1.4,0,2.8-1,3.6-2.3c0,0,0.2,3.4,0.4,5.9c0,0,0,0.1,0,0.1c0,0-0.1,0-0.1,0c-3.1-0.3-4.8-1.2-6.9-2.9
		c-0.1-0.1-0.3-0.1-0.4,0c-1.4,1-2.1,3.2-2.1,5.1c0,0.1,0.1,0.2,0.2,0.3c1.7,0.9,4.8,2.1,6.8,2.1c4.5,0,8.1-4.2,7.8-7.4
		C64,49.6,63.7,45.4,64.3,41.8"/>
</g>
</svg>
