<svg xmlns="http://www.w3.org/2000/svg" width="152" height="152" viewBox="0 0 152 152">
    <g fill="none" fill-rule="evenodd">
        <circle cx="75" cy="75" r="75" fill="#FFC700" stroke="#EAEAEA" transform="translate(1 1)"/>
        <path fill="#050505" fill-rule="nonzero" d="M69.457 49.273l-5.787-9.76a.846.846 0 0 0-.65-.41 1 1 0 0 0-.309-.069h-5.17a.848.848 0 0 0-.857.856c0 .48.377.856.856.856h4.897l5.548 9.383a.86.86 0 0 0 .753.411.753.753 0 0 0 .445-.137c.377-.205.514-.719.274-1.13zM92.811 39.034h-5.205a.697.697 0 0 0-.513.206c-.035 0-.035.034-.069.034-.034.034-.034.068-.068.068a.747.747 0 0 0-.137.172l-5.788 9.76a.885.885 0 0 0 .309 1.198c.137.068.274.137.445.137a.86.86 0 0 0 .753-.411l5.548-9.383h4.725c.48 0 .856-.377.856-.856 0-.48-.376-.925-.856-.925z"/>
        <path fill="#FFC700" d="M64.15 61.704l2.122-3.63 2.123-3.699c1.233-2.088 2.02-1.986 3.46-1.951h8.491c2.432 0 2.706.753 3.425 2.02l2.089 3.63 2.123 3.698c1.198 2.089.719 2.74-.034 3.972l-2.09 3.63-2.122 3.699c-1.233 2.088-2.02 1.986-3.459 1.951h-8.492c-2.432 0-2.74-.753-3.425-2.02l-2.089-3.63-2.123-3.698c-1.233-2.089-.753-2.705 0-3.972z"/>
        <path fill="#FFC700" d="M61.307 86.462l2.602-4.52 2.637-4.589c1.507-2.568 2.466-2.466 4.28-2.431H81.34c2.979.034 3.39.924 4.246 2.5l2.602 4.52 2.637 4.588c1.473 2.603.89 3.39-.034 4.931l-14.69 22.67-14.863-22.738c-1.472-2.603-.89-3.39.069-4.931z"/>
        <path fill="#F90" d="M82.435 57.697l2.26 3.938c1.267 2.226.754 2.91-.034 4.246l-2.226 3.87-2.054 3.938c-.069.103-.24.377-.308.445H81.716c.411-.171.685-.685 1.199-1.54l2.123-3.7 2.089-3.629.103-.137c.513-.856.821-1.37-.069-2.91l-2.089-3.699-2.089-3.63-.068-.137a3.735 3.735 0 0 0-.206-.377c-.274-.479-.582-.787-1.267-.924-.274-.069-.616-.103-1.061-.103h-.411c.103.171.171.343.274.514l.445.787.89 1.541.856 1.507zM81.716 77.456l5.856 10.136c.925 1.575.856 1.438 0 2.842L74.833 110.09l1.302 1.986 13.629-21.025.102-.137c.685-1.13 1.062-1.781-.068-3.767l-2.603-4.486-2.568-4.418-.103-.17c-.548-1.028-.924-1.645-2.568-1.782-.205-.034-.445-.034-.72-.034h-.307a.267.267 0 0 1 .137.137c.205.206.342.548.65 1.062z"/>
        <path fill="#000" fill-rule="nonzero" d="M105.276 71.943l-3.698-6.404c-.651-1.164-1.062-1.952-3.288-2.02h-7.568c-.376 0-.719 0-1.061.034-.069-.582-.343-1.301-.856-2.226l-2.123-3.698-2.09-3.63-.068-.137c-.822-1.473-1.301-2.329-4.143-2.329h-8.63c-1.678-.034-2.67-.068-4.109 2.397L65.52 57.63l-2.157 3.63-.103.136c-.48.788-.822 1.404-.822 2.226a5.682 5.682 0 0 0-.822-.068h-7.568c-1.37-.034-2.294-.034-3.527 2.054l-3.595 6.233-.069.137c-.685 1.164-1.164 1.952 0 4.006l3.63 6.267.068.137c.651 1.198 1.096 1.986 3.562 2.02H61.889l-1.061 1.815-.103.171c-1.027 1.678-1.61 2.637.068 5.548l.035.034 14.553 22.259.754 1.13.753-1.13 14.382-22.19v-.035l.103-.17c1.027-1.679 1.61-2.638-.068-5.548l-1.13-1.952c.17 0 .376.034.582.034h7.738c1.13 0 1.987-.205 3.083-2.089l3.595-6.198.069-.137c.753-1.164 1.198-1.952.034-4.006zM64.834 62.32l.069-.137 2.123-3.63 2.123-3.698c.89-1.541 1.472-1.541 2.5-1.507h8.697c1.781 0 2.055.514 2.569 1.404l.068.137 2.09 3.63 2.122 3.698c.89 1.541.582 2.055.069 2.911l-.103.137-2.089 3.63-2.123 3.698c-.89 1.541-1.472 1.541-2.5 1.507h-8.697c-1.781 0-2.055-.514-2.569-1.404l-.068-.137-2.09-3.63-2.122-3.698c-.89-1.541-.583-2.02-.069-2.911zm12.225 45.544l-.993-.548-.993.548-1.267.685-3.15-4.828 5.41-2.911 5.479 2.945-3.116 4.828-1.37-.719zm0-11.334l-.993-.548-.993.548-6.746 3.63-3.048-4.692 10.787-5.821 10.821 5.855-3.048 4.692-6.78-3.664zm12.807-5.616l-.102.137-.583.89L77.06 85.4l-.993-.549-.993.548-12.122 6.54-.617-.958c-1.096-1.952-.719-2.602-.034-3.733l.103-.17v-.035l2.534-4.417 2.602-4.486c1.165-1.986 1.918-1.952 3.22-1.952h10.477c2.295 0 2.672.65 3.288 1.815l.103.17 2.534 4.418 2.603 4.486c1.164 2.055.753 2.706.102 3.836z"/>
        <path fill="#FFF" fill-rule="nonzero" d="M61.478 82.73H53.98c-1.37-.035-1.575-.412-1.986-1.165l-3.664-6.37c-.72-1.3-.514-1.643-.069-2.43l3.664-6.37c.754-1.301 1.199-1.267 2.089-1.267h7.362c1.028 0 1.439.171 1.747.582l.205.411 2.123 3.698 1.952 3.39c.377.857.172 1.233-.205 1.884l-3.664 6.37c-.754 1.3-1.164 1.3-2.055 1.266zM103.872 75.127l-3.664 6.335c-.753 1.267-1.164 1.302-2.089 1.267H90.62c-1.37-.034-1.576-.41-1.986-1.164l-3.665-6.37c-.513-.924-.547-1.37-.376-1.848l2.02-3.528 2.089-3.63.068-.136c.035-.035.035-.069.069-.103.582-.822.993-.822 1.78-.822h7.363c1.473 0 1.678.377 2.123 1.164l3.664 6.37c.788 1.335.582 1.678.103 2.465z"/>
    </g>
</svg>
