<?xml version="1.0" encoding="utf-8"?>
<!-- Generator: Adobe Illustrator 22.0.0, SVG Export Plug-In . SVG Version: 6.00 Build 0)  -->
<svg version="1.1" id="Layer_1" xmlns="http://www.w3.org/2000/svg" xmlns:xlink="http://www.w3.org/1999/xlink" x="0px" y="0px"
	 viewBox="0 0 91 91" style="enable-background:new 0 0 91 91;" xml:space="preserve">
<style type="text/css">
	.st0{fill:#FFFFFF;stroke:#EAEAEA;stroke-miterlimit:10;}
	.st1{fill:#67BF34;}
	.st2{opacity:0.4;enable-background:new    ;}
	.st3{clip-path:url(#SVGID_2_);}
	.st4{fill:#26783C;}
	.st5{fill:none;}
	.st6{fill:#FFFFFF;}
	.st7{fill:#D4D3D2;}
	.st8{fill:#B2B2B2;}
</style>
<g>
	<circle class="st0" cx="45.5" cy="45.5" r="45"/>
	<g>
		<g>
			<circle class="st1" cx="45.5" cy="45.5" r="44.5"/>
		</g>
		<g class="st2">
			<g>
				<g>
					<defs>
						<circle id="SVGID_1_" cx="45.5" cy="45.5" r="44.5"/>
					</defs>
					<clipPath id="SVGID_2_">
						<use xlink:href="#SVGID_1_"  style="overflow:visible;"/>
					</clipPath>
					<g class="st3">
						<path class="st4" d="M14.1,14.1c0,2.3,0,4.5,0,6.8c0,0.2,0,0.2,0.2,0.4c1,0.6,1,1,0.2,1.6c0,0.8,0.2,1.4,0.2,2.1
							c0.2,1.8,0.6,3.7,1.6,5.3c1.2,2.1,2.9,3.7,4.7,5.1c1.4,1.2,3.1,2.3,4.5,3.7c3.1,2.9,3.3,6.8,0.4,10c-0.4,0.6-1,1-1.4,1.6
							c1.2,1.2,1.2,2.3,0.2,3.9c-0.6,0.8-1,1.6-1,2.9c0,3.9,0,7.8,0,11.5c0,0.2,0,0.6,0,0.8c3.3,0,6.6,0,9.6,0c0-0.4,0-0.6,0-0.8
							c0-3.7,0-7.4,0-10.9c0-0.6-0.2-1.4-0.6-2.1c-0.6-1-0.6-1.4,0.2-2.5c-0.2-0.2-0.4-0.4-0.6-0.6c-2.5-2.1-2.5-5.1,0-7.2
							c0.6-0.6,1.4-1,2.1-1.6c1.4-1,2.7-2.3,3.7-3.7c1-1.2,1.2-2.9,1.2-4.3c0-0.4,0.2-0.8-0.2-1c-0.2,0,0-0.6,0.2-0.8
							c0-0.2,0.2-0.2,0.2-0.4c0-1.4,0-2.9,0-4.3c-0.4,0,0.8,0,0.2,0c0,1.4,0,2.7,0,3.9c0,0.4,0.2,0.6,0.4,0.8c0,0.2,0.2,0.4,0.2,0.6
							c-0.6,0.6-0.2,1.4-0.2,2.1c0,1.6,0.6,3.1,1.6,4.1c1.2,1.2,2.5,2.5,3.9,3.5c1.4,1,2.7,2.3,3.1,3.9c0,0.6,0,1,0,1.6
							c-0.4,1.2-1.2,2.5-2.3,3.3c1,1,1,1.4,0.2,2.7c-0.4,0.6-0.6,1.2-0.6,2.1c0,4.1,0,8.4,0,12.5c0,6.6,0,13.1,0,19.7
							c0,0.2,0,0.6,0,0.8c-21.3,0-42.7,0-64.2,0c0-0.4,0-0.6,0-0.8c0-10.7,0-21.5,0-32.2c0-0.4-0.2-0.8-0.2-1
							c-0.2-0.4-0.6-0.8-0.6-1.4c-0.2-0.8-0.2-1.4,0.6-2.1c-1.2-0.8-2.1-1.8-2.5-3.3c0-0.6,0-1,0-1.6c0.4-1.4,1.2-2.5,2.3-3.3
							c1-0.8,2.1-1.4,2.9-2.3c1.4-1.4,3.1-2.9,3.3-4.9c0.2-1,0.6-2.1,0-3.1c0-0.2,0-0.4,0.2-0.6c0-0.2,0.2-0.2,0.2-0.4
							c0-1.4,0-2.9,0-4.3h0.2c0,1.2,0,2.5,0,3.9c0,0.4,0,0.8,0.4,1c0.2,0,0.2,0.6,0.2,0.6c-0.4,0.2-0.2,0.6-0.2,1
							c0,2.3,0.8,4.1,2.5,5.5c1.4,1.2,2.9,2.7,4.5,3.9c2.3,2.1,2.3,4.9,0.2,7c-0.2,0.2-0.4,0.4-0.6,0.6c0.8,1,0.8,1.4,0.2,2.7
							c-0.4,0.6-0.8,1.2-0.6,2.1c0,3.7,0,7.4,0,11.1c0,0.2,0,0.6,0,0.8c3.3,0,6.6,0,9.8,0c0-0.2,0-0.6,0-0.8c0-3.7,0-7.4,0-11.3
							c0-1.4-0.6-2.5-1.2-3.5c-0.2-0.4-0.4-0.8-0.4-1.2c-0.2-1,0.2-1.8,1-2.3c-0.4-0.4-1-0.8-1.2-1.2C0.6,47.6,0,44.7,1,42.2
							c0.6-1.6,1.8-2.9,3.1-3.9c2.3-1.8,4.7-3.5,6.6-5.7c1.4-1.6,2.5-3.5,2.9-5.7c-0.2-1.2,0-2.3,0-3.3c0-0.2,0-0.4-0.2-0.6
							c-0.4-0.6-0.4-1.2,0-1.6c0.2-0.2,0.4-0.4,0.4-0.6c0-2.1,0-3.9,0-5.9c0-0.2,0-0.4,0-0.6L14.1,14.1z"/>
					</g>
				</g>
			</g>
		</g>
		<g>
			<circle class="st5" cx="45.5" cy="45.5" r="44.5"/>
		</g>
		<g>
			<polygon class="st6" points="82,43.9 69.5,68.3 58.6,64.2 			"/>
		</g>
		<g>
			<polygon class="st6" points="52.9,62.1 42.6,58.2 82,43.9 			"/>
		</g>
		<g>
			<polygon class="st7" points="58.6,64.2 54.7,72.6 52.9,62.1 82,43.9 			"/>
		</g>
		<g>
			<polygon class="st8" points="54.7,72.6 61.9,65.4 58.6,64.2 			"/>
		</g>
		<g>
			<path class="st6" d="M44.5,79.1c-0.6,0-1,0-1.6-0.2v-0.6c0.6,0,1,0,1.6,0.2V79.1z M46.5,78.9v-0.6c0.6,0,1-0.2,1.6-0.2l0.2,0.6
				C47.6,78.9,46.9,78.9,46.5,78.9z M40.8,78.7c-0.6-0.2-1-0.2-1.6-0.4l0.2-0.6c0.6,0.2,1,0.2,1.6,0.4L40.8,78.7z M50,78.1l-0.2-0.6
				c0.4-0.2,1-0.4,1.4-0.8l0.4,0.6C51,77.5,50.4,77.9,50,78.1z M37.3,77.7c-0.4-0.2-1-0.4-1.6-0.6l0.2-0.6c0.6,0.2,1,0.4,1.6,0.6
				L37.3,77.7z M34,76.3c-0.4-0.2-1-0.4-1.4-0.8l0.2-0.6c0.4,0.2,1,0.4,1.4,0.8L34,76.3z M53.1,75.9l-0.4-0.4c0.6-0.6,1-1.2,1-1.2
				l0.6,0.2C54.1,74.6,53.7,75.2,53.1,75.9z M30.9,74.6c-0.4-0.2-1-0.6-1.4-0.8l0.4-0.6c0.4,0.2,1,0.6,1.4,0.8L30.9,74.6z
				 M27.9,72.8c-0.4-0.2-1-0.6-1.4-1l0.4-0.6c0.4,0.4,1,0.6,1.4,0.8L27.9,72.8z M24.8,70.7L24.8,70.7c-0.4-0.4-1-0.6-1.4-1l0.4-0.6
				c0.4,0.2,0.8,0.6,1.4,1L24.8,70.7z M21.9,68.7c-0.4-0.4-1-0.6-1.4-0.8l0.4-0.6c0.4,0.2,1,0.6,1.4,0.8L21.9,68.7z M18.8,66.8
				c-0.6-0.2-1-0.6-1.4-0.8l0.2-0.6c0.4,0.2,1,0.4,1.4,0.8L18.8,66.8z M15.6,65.2c-0.6-0.2-1-0.4-1.6-0.6l0.2-0.6
				c0.6,0.4,1.2,0.6,1.6,0.8L15.6,65.2z M7.2,64.2l-0.2-0.6c0.6-0.2,1-0.4,1.6-0.4v0.6C8.2,64,7.8,64.2,7.2,64.2z M12.3,64.2
				c-0.6-0.2-1-0.2-1.6-0.2v-0.6c0.6,0,1,0.2,1.6,0.2V64.2z"/>
		</g>
		<g>
			<path class="st6" d="M5.5,65.8l-0.4-0.4c0.6-0.8,1-1.2,1.2-1.4l0.2,0.6C6.5,64.6,6.1,65,5.5,65.8z"/>
		</g>
	</g>
</g>
</svg>
