<svg xmlns="http://www.w3.org/2000/svg" width="152" height="152" viewBox="0 0 152 152">
    <g fill="none" fill-rule="evenodd" transform="translate(1 1)">
        <circle cx="75" cy="75" r="75" fill="#FFF" stroke="#EAEAEA"/>
        <path fill="#7FC248" d="M77.481 100.82S74.898 77.984 97.74 75.85c0 0 1.505-.502 1.686 1.959 0 0 3.597 23.778-20.802 25.322 0 0-1.003.004-1.142-2.312z"/>
        <path fill="#0A0A0A" fill-rule="nonzero" d="M78.696 104.67c-.4 0-2.527-.153-2.754-3.723-.091-.853-1.007-11.023 5.205-18.666 3.757-4.62 9.291-7.301 16.45-7.97.225-.116 1.128-.14 1.923.39.855.571 1.343 1.577 1.447 2.994.054.334 1.595 11.096-4.804 19.029-3.86 4.785-9.73 7.457-17.444 7.944l-.023.002zM97.79 77.363c-6.409.716-11.085 2.998-14.227 6.85-5.536 6.79-4.556 16.34-4.546 16.433l.008.08c.01.277.051.553.121.821 6.456-.515 11.392-2.781 14.601-6.745 5.546-6.859 4.168-16.666 4.152-16.763a3.32 3.32 0 0 0-.109-.676zm.177-.02c.089.015.18.005.264-.028-.088.007-.177.02-.266.028h.002z"/>
        <path fill="#24ACDA" d="M73.283 80.964s-15.52-16.948 1.697-32.109c0 0 .922-1.29 2.515.593 0 0 16.896 17.115-1.928 32.713-.001 0-.81.594-2.284-1.197z"/>
        <path fill="#020202" fill-rule="nonzero" d="M75.16 83.79c-.79 0-1.855-.378-3.046-1.815-.575-.636-7.297-8.323-6.77-18.155.319-5.949 3.218-11.374 8.613-16.123.117-.233.835-.778 1.79-.817 1.066.053 2.012.487 2.927 1.57.244.237 7.82 8.037 7.311 18.215-.308 6.142-3.481 11.756-9.434 16.687a2.39 2.39 0 0 1-1.39.438zm.751-33.742c-4.773 4.358-7.212 8.962-7.48 13.937-.47 8.774 5.927 15.865 5.991 15.937l.055.06c.171.218.366.416.579.593 4.919-4.211 7.578-8.949 7.84-14.04.453-8.81-6.434-15.933-6.502-16.006a3.828 3.828 0 0 0-.483-.481zm.326-.294l-.197.177a.561.561 0 0 0 .197-.177z"/>
        <path fill="#7FC248" d="M72.2 100.82s2.584-22.835-20.257-24.97c0 0-1.505-.502-1.686 1.959 0 0-3.597 23.778 20.802 25.322 0 0 1.004.004 1.142-2.312z"/>
        <path fill="#0A0A0A" fill-rule="nonzero" d="M71.056 104.674h-.008c-7.8-.491-13.67-3.163-17.53-7.948-6.399-7.933-4.858-18.695-4.79-19.146.091-1.3.58-2.31 1.436-2.878a2.668 2.668 0 0 1 2.27-.318c6.811.596 12.345 3.276 16.102 7.897 6.212 7.646 5.295 17.818 5.204 18.67-.23 3.602-2.399 3.723-2.684 3.723zM51.88 77.394c-.044.174-.071.35-.082.528-.029.212-1.407 10.022 4.14 16.88 3.193 3.948 8.103 6.214 14.6 6.74.068-.267.108-.54.119-.816l.008-.08c.01-.093.99-9.644-4.544-16.433-3.2-3.925-7.99-6.219-14.241-6.818z"/>
    </g>
</svg>
