<?xml version="1.0" encoding="utf-8"?>
<!-- Generator: Adobe Illustrator 22.0.0, SVG Export Plug-In . SVG Version: 6.00 Build 0)  -->
<svg version="1.1" id="Layer_1" xmlns="http://www.w3.org/2000/svg" xmlns:xlink="http://www.w3.org/1999/xlink" x="0px" y="0px"
	 viewBox="0 0 91 91" style="enable-background:new 0 0 91 91;" xml:space="preserve">
<style type="text/css">
	.st0{fill:#FFFFFF;stroke:#EAEAEA;stroke-miterlimit:10;}
	.st1{clip-path:url(#SVGID_2_);fill:url(#SVGID_3_);}
	.st2{clip-path:url(#SVGID_5_);}
	.st3{fill:#FFFFFF;}
</style>
<g>
	<circle class="st0" cx="45.5" cy="45.5" r="45"/>
	<g>
		<g>
			<defs>
				<circle id="SVGID_1_" cx="45.5" cy="45.5" r="44.5"/>
			</defs>
			<clipPath id="SVGID_2_">
				<use xlink:href="#SVGID_1_"  style="overflow:visible;"/>
			</clipPath>
			
				<linearGradient id="SVGID_3_" gradientUnits="userSpaceOnUse" x1="2.7077" y1="-117.8987" x2="88.2918" y2="-117.8987" gradientTransform="matrix(1 0 0 -1 0 -72.3987)">
				<stop  offset="0" style="stop-color:#11CCA8"/>
				<stop  offset="0.1954" style="stop-color:#10C3B2"/>
				<stop  offset="0.5329" style="stop-color:#0DACCE"/>
				<stop  offset="0.9694" style="stop-color:#0987FC"/>
				<stop  offset="1" style="stop-color:#0984FF"/>
			</linearGradient>
			<circle class="st1" cx="45.5" cy="45.5" r="44.5"/>
		</g>
		<g>
			<defs>
				<circle id="SVGID_4_" cx="45.5" cy="45.5" r="44.5"/>
			</defs>
			<clipPath id="SVGID_5_">
				<use xlink:href="#SVGID_4_"  style="overflow:visible;"/>
			</clipPath>
			<g class="st2">
				<path class="st3" d="M82.5,30.5L82.5,30.5C82.4,30.4,82.4,30.5,82.5,30.5L82.5,30.5z"/>
				<path class="st3" d="M82.7,30.8l-0.6-0.6c-0.8-0.5-1.9-0.6-2.7-0.2L54.3,43c-1,0.5-1.6,1.6-1.4,2.8c0.2,1.1,1,2,2.1,2.3l9.7,1.9
					l2.7,9c0.3,1.1,1.3,1.9,2.5,1.9h0.1c1.1,0,2.1-0.7,2.5-1.7l10.7-25.7C83.5,32.5,83.3,31.5,82.7,30.8z M55.6,45.4l21.6-11.2
					L65.3,47.3L55.6,45.4z M69.9,60.2L69.9,60.2L69.9,60.2L69.9,60.2z M69.9,58.2l-2.7-9.1l11.8-13L69.9,58.2z"/>
				<path class="st3" d="M59.5,52.4c-6.1,0-12.4,0-18.5,0c-0.2-0.2-0.5-0.7-1-1.4c-1.1-1.8-2.3-3.6-3.4-5.3
					c-1.7-2.6-3.3-5.2-4.9-7.8c-0.8-1.3-3-1.5-3.8,0c-3.8,7.3-7.5,14.6-11.4,22.1C12.9,44.2,9.2,28.6,5.4,13c-0.5-2.3-3.6-2-4.3,0
					c-4.3,12.4-8.6,24.8-12.9,37.2c-2.5-3.1-4.9-6-7.4-9.1c-0.9-1.2-2.8-0.6-3.5,0.4c-3.1,4.7-6.2,9.6-9.3,14.3c-1.7,0-3.3,0-4.9,0
					c-3.2,0-6.3,0-9.4,0c-2.8,0-2.7,5.1,0.2,5.1c5.5-0.1,15.2,0.6,16.7-0.8c3.9-3.8,6.4-9.3,9-13.8c2.7,3.3,5.2,6.4,7.9,9.7
					c1.1,1.4,3.2,0.4,3.7-1C-4.9,43.9-1,32.5,3,21.3c3.6,15.1,7.2,30.3,10.8,45.4c0.4,1.8,3.2,2.2,4,0.5c4.1-7.9,8.2-15.9,12.3-23.8
					c1.3,2,2.6,4,3.8,6c1.2,2,3.1,5.9,5.1,7c1.8,1,16.3,0.4,20.5,0.4C62.3,56.8,62.3,52.4,59.5,52.4z"/>
			</g>
		</g>
	</g>
</g>
</svg>
