<svg xmlns="http://www.w3.org/2000/svg" width="152" height="152" viewBox="0 0 152 152">
    <defs>
        <linearGradient id="a" x1=".032%" x2="100.095%" y1="50.042%" y2="50.042%">
            <stop offset=".196%" stop-color="#48B6B3"/>
            <stop offset="30.67%" stop-color="#46C3AD"/>
            <stop offset="86.88%" stop-color="#41E59F"/>
            <stop offset="100%" stop-color="#40EE9B"/>
        </linearGradient>
        <linearGradient id="b" x1=".047%" x2="99.945%" y1="50.096%" y2="50.096%">
            <stop offset=".196%" stop-color="#48B6B3"/>
            <stop offset="30.67%" stop-color="#46C3AD"/>
            <stop offset="86.88%" stop-color="#41E59F"/>
            <stop offset="100%" stop-color="#40EE9B"/>
        </linearGradient>
    </defs>
    <g fill="none" fill-rule="evenodd">
        <circle cx="75" cy="75" r="75" fill="#FBFBFB" stroke="#EAEAEA" transform="translate(1 1)"/>
        <g fill-rule="nonzero" transform="translate(28.136 26.707)">
            <circle cx="48.154" cy="48.991" r="48.014" fill="url(#a)"/>
            <path fill="#FFF" d="M28.753 52.202c-4.048-11.027-2.792-22.612 2.652-31.266C20.099 26.8 12.7 38.942 13.679 52.481c1.256 18.145 17.028 31.823 35.033 30.567 7.817-.558 14.935-3.769 20.239-8.793-15.772 5.304-33.638-4.467-40.198-22.053z"/>
            <path fill="url(#b)" d="M60.576 24.286l37.128-7.118L82.21 52.76l-5.165-18.703z"/>
            <path fill="#000" d="M98.96 16.75s0-.14 0 0v-.28-.14s0-.14-.14-.14c0 0 0-.139-.14-.139h-.139s-.14 0-.14-.14h-.14-.139-.14-.139l-38.802 7.817c-.419 0-.558.419-.698.698 0 .419.14.698.419.837l16.61 9.073 5.164 18.424c.14.28.418.558.698.558.418 0 .697-.14.837-.418l16.75-35.732v-.14-.14c.139 0 .139-.139.139-.139zm-37.267 8.234l32.94-6.56-18.564 14.237-14.376-7.677zm19.96 24.984l-4.607-16.05L95.89 19.54 81.652 49.968zM68.811 40.338c-.279-.28-.698-.42-1.116-.14L55.55 49.55c-.279.279-.418.698-.14 1.116.14.14.28.28.56.28.139 0 .418 0 .558-.14l12.143-9.352c.279-.279.279-.698.14-1.116zM70.067 46.06l-6.14 4.746c-.28.279-.42.698-.14 1.116.14.14.279.28.558.28.14 0 .419 0 .558-.14l6.141-4.746c.28-.279.42-.697.14-1.116-.28-.419-.837-.419-1.117-.14zM56.947 42.431c.14 0 .419 0 .559-.14l6.14-4.745c.28-.28.42-.698.14-1.117-.279-.279-.697-.418-1.116-.14l-6.141 4.747c-.28.279-.42.697-.14 1.116.14.14.419.28.558.28z"/>
        </g>
    </g>
</svg>
