<?xml version="1.0" encoding="utf-8"?>
<!-- Generator: Adobe Illustrator 22.0.0, SVG Export Plug-In . SVG Version: 6.00 Build 0)  -->
<svg version="1.1" id="Layer_1" xmlns="http://www.w3.org/2000/svg" xmlns:xlink="http://www.w3.org/1999/xlink" x="0px" y="0px"
	 viewBox="0 0 91 91" style="enable-background:new 0 0 91 91;" xml:space="preserve">
<style type="text/css">
	.st0{fill:url(#SVGID_1_);stroke:#EAEAEA;stroke-miterlimit:10;}
	.st1{fill:#0B0B0B;}
	.st2{fill:#26ABD9;}
	.st3{fill:#FFFFFF;}
	.st4{fill:#80C246;}
</style>
<g>
	<linearGradient id="SVGID_1_" gradientUnits="userSpaceOnUse" x1="0.5" y1="45.5" x2="90.5" y2="45.5">
		<stop  offset="0" style="stop-color:#7FC248"/>
		<stop  offset="1" style="stop-color:#24ACDA"/>
	</linearGradient>
	<circle class="st0" cx="45.5" cy="45.5" r="45"/>
	<g>
		<path class="st1" d="M55.1,60.6H37.7l-1.1-3.9h19.8L55.1,60.6z M38.7,59.2h15.3l0.4-1.2H38.4L38.7,59.2z"/>
		<path class="st2" d="M44,50c-1.2,0.6-2.7,0-3.2-1.2l-7.7-17.1c-0.6-1.2,0-2.7,1.2-3.2l0,0c1.2-0.6,2.7,0,3.2,1.2l7.7,17.1
			C45.8,48,45.2,49.4,44,50L44,50z"/>
		<path class="st1" d="M43,50.9c-1.2,0-2.3-0.7-2.9-1.8L32.4,32c-0.7-1.6,0-3.4,1.6-4.1c1.5-0.7,3.5,0,4.1,1.6l7.7,17.1
			c0.7,1.6,0,3.4-1.6,4.1C43.9,50.8,43.5,50.9,43,50.9z M35.3,29c-0.2,0-0.5,0.1-0.7,0.2c-0.9,0.4-1.3,1.4-0.9,2.3l7.7,17.1
			c0.4,0.9,1.5,1.3,2.3,0.9c0.9-0.4,1.3-1.4,0.9-2.3L36.9,30C36.6,29.4,36,29,35.3,29z"/>
		<path class="st1" d="M37.3,35.1c-0.2,0.1-0.5-0.1-0.7-0.4l-1-2.1c-0.1-0.3-0.1-0.6,0.2-0.7l0,0c0.2-0.1,0.5,0.1,0.7,0.4l1,2.1
			C37.6,34.7,37.5,35,37.3,35.1L37.3,35.1z"/>
		<path class="st1" d="M39.5,40c-0.2,0.1-0.5-0.1-0.7-0.4l-1-2.1c-0.1-0.3-0.1-0.6,0.2-0.7l0,0c0.2-0.1,0.5,0.1,0.7,0.4l1,2.1
			C39.8,39.6,39.7,39.9,39.5,40L39.5,40z"/>
		<path class="st3" d="M46.4,57.4c0,0,5.2,0,6.9,0c1.7,0,2.5-1,2.5-1C61,51.2,61,43.5,61,43.5C60.8,42,59.6,42,59.6,42H46.4H33.3
			c0,0-1.2,0-1.4,1.5c0,0,0,7.7,5.1,12.9c0,0,0.8,1,2.5,1C41.2,57.4,46.4,57.4,46.4,57.4z"/>
		<path class="st1" d="M53.3,58.1H39.5c-2,0-3-1.2-3.1-1.3c-5.2-5.3-5.3-13-5.3-13.3c0.2-1.7,1.5-2.2,2.1-2.2h26.3
			c0.6,0,1.9,0.4,2.1,2.1c0,0.4-0.1,8.2-5.3,13.5C56.4,56.8,55.3,58.1,53.3,58.1z M32.6,43.5c0,0,0.1,7.4,4.9,12.3
			c0.1,0.1,0.7,0.8,2,0.8h13.8c1.3,0,2-0.8,2-0.8c4.9-4.9,4.9-12.4,4.9-12.5c-0.1-0.7-0.5-0.8-0.7-0.8H33.3
			C33.1,42.7,32.7,42.8,32.6,43.5L32.6,43.5z"/>
		<path class="st1" d="M37.5,48.8c0,0.3-0.3,0.6-0.7,0.6l-3.3,0c-0.4,0-0.7-0.3-0.7-0.6l0,0c0-0.3,0.3-0.6,0.7-0.6l3.3,0
			C37.2,48.2,37.5,48.5,37.5,48.8L37.5,48.8z"/>
		<path class="st1" d="M41,51.9c0,0.3-0.3,0.6-0.7,0.6l-5.7,0c-0.4,0-0.7-0.3-0.7-0.6l0,0c0-0.3,0.3-0.6,0.7-0.6l5.7,0
			C40.7,51.3,41,51.6,41,51.9L41,51.9z"/>
		<path class="st4" d="M49,45.8c0,0-0.9-7.7,6.8-8.4c0,0,0.5-0.2,0.6,0.7c0,0,1.2,8-7,8.5C49.3,46.6,49,46.6,49,45.8z"/>
		<path class="st1" d="M49.3,47.2c-0.1,0-1,0-1.1-1.4c0-0.1-0.4-3.7,1.8-6.4c1.3-1.6,3.2-2.5,5.6-2.7c0.6,0,1.2,0.3,1.3,1.3
			c0,0.1,0.5,3.8-1.6,6.5C54,46.2,52,47.1,49.3,47.2L49.3,47.2L49.3,47.2L49.3,47.2z M55.6,38.1c-2,0.2-3.5,1-4.5,2.2
			c-1.8,2.2-1.5,5.4-1.5,5.4c0,0.1,0,0.1,0,0.1c2.1-0.2,3.6-0.9,4.6-2.2C56.1,41.4,55.7,38.2,55.6,38.1
			C55.6,38.1,55.6,38.1,55.6,38.1z"/>
	</g>
</g>
</svg>
