<?xml version="1.0" encoding="utf-8"?>
<!-- Generator: Adobe Illustrator 22.0.0, SVG Export Plug-In . SVG Version: 6.00 Build 0)  -->
<svg version="1.1" xmlns="http://www.w3.org/2000/svg" xmlns:xlink="http://www.w3.org/1999/xlink" x="0px" y="0px"
	 viewBox="0 0 91 91" style="enable-background:new 0 0 91 91;" xml:space="preserve">
<style type="text/css">
	.st0{fill:#FFFFFF;stroke:#EAEAEA;stroke-miterlimit:10;}
	.st1{fill:#FFFFFF;}
	.st2{fill:#2FC197;}
	.st3{fill:#28B287;}
	.st4{clip-path:url(#SVGID_2_);fill:#26AA7E;}
	.st5{opacity:0.6;fill:#BCBCBC;}
</style>
<g id="Guides_For_Artboard">
</g>
<g id="Layer_1">
	<g>
		<circle class="st0" cx="45.5" cy="45.5" r="45"/>
		<g>
			<path class="st1" d="M90,45.5C90,20.9,70.1,1,45.5,1C20.9,1,1,20.9,1,45.5C1,70.1,20.9,90,45.5,90C70.1,90,90,70.1,90,45.5z"/>
		</g>
		<g>
			<g>
				<path class="st2" d="M64.6,40.2c0-9.9-8.4-18-18.6-18c-10.3,0-18.6,8.1-18.6,18c0,9.9,8.3,18,18.6,18
					C56.3,58.1,64.6,50.1,64.6,40.2z"/>
				<path class="st2" d="M48.9,20.8c-12.4,0-22.5,9.5-22.5,21.1c0,5.1,1.9,9.8,5.2,13.5l17.3,21.1L48.9,20.8L48.9,20.8z"/>
				<path class="st3" d="M56.8,40.5c0-6.1-4.9-11-11-11c-6.1,0-11,4.9-11,11c0,6.1,4.9,11,11,11C51.9,51.5,56.8,46.5,56.8,40.5z"/>
				<g>
					<defs>
						<path id="SVGID_1_" d="M64.6,40.2c0-9.9-8.4-18-18.6-18c-10.3,0-18.6,8.1-18.6,18c0,9.9,8.3,18,18.6,18
							C56.3,58.1,64.6,50.1,64.6,40.2z"/>
					</defs>
					<clipPath id="SVGID_2_">
						<use xlink:href="#SVGID_1_"  style="overflow:visible;"/>
					</clipPath>
					<polyline class="st4" points="51.4,30.7 68.3,45.7 54.2,61.4 50.9,60.6 37,47.3 					"/>
				</g>
				<path class="st1" d="M57.1,40.7c0-6.1-4.9-11-11-11c-6.1,0-11,4.9-11,11c0,6.1,4.9,11,11,11C52.2,51.6,57.1,46.7,57.1,40.7z"/>
				<path class="st5" d="M53.7,46.8c-0.1,0.1-0.3,0.1-0.4-0.1L38.6,35.3c-0.2-0.1-0.2-0.3-0.2-0.4l0,0c0.1-0.1,0.3-0.1,0.4,0.1
					l14.7,11.4C53.7,46.5,53.8,46.7,53.7,46.8L53.7,46.8z"/>
				<path class="st2" d="M53.7,46.4c-0.1,0.1-0.3,0.1-0.4-0.1L38.6,34.9c-0.2-0.1-0.2-0.3-0.2-0.4l0,0c0.1-0.1,0.3-0.1,0.4,0.1
					L53.5,46C53.7,46.1,53.8,46.3,53.7,46.4L53.7,46.4z"/>
			</g>
		</g>
	</g>
</g>
</svg>
