<?xml version="1.0" encoding="utf-8"?>
<!-- Generator: Adobe Illustrator 22.0.0, SVG Export Plug-In . SVG Version: 6.00 Build 0)  -->
<svg version="1.1" id="Layer_1" xmlns="http://www.w3.org/2000/svg" xmlns:xlink="http://www.w3.org/1999/xlink" x="0px" y="0px"
	 viewBox="0 0 91 91" style="enable-background:new 0 0 91 91;" xml:space="preserve">
<style type="text/css">
	.st0{fill:#F7B703;stroke:#EAEAEA;stroke-miterlimit:10;}
	.st1{fill:#0F0F0F;}
	.st2{fill:#FFFFFF;}
</style>
<g>
	<circle class="st0" cx="45.5" cy="45.5" r="45"/>
	<g>
		<path class="st1" d="M43,60.3c0,1-0.4,1.9-1,2.6c-0.6,0.7-1.4,1.1-2.4,1.1c-1,0-1.8-0.4-2.6-1c-0.8-0.7-1.1-1.5-1.1-2.4v-24
			c0-1.8,0.1-3.2,0.4-4.1c0.2-1,0.7-1.6,1.4-1.8c0.8-0.3,1.4-0.4,1.9-0.4l1.1,0.1c0.4,0,0.6,0.2,0.9,0.4s0.4,0.4,0.5,0.6l0.4,0.9
			c1-0.6,2-1.1,3.2-1.4c1.1-0.4,2.5-0.5,3.8-0.5c3.4,0,6.4,1.2,9,3.8s3.8,5.5,3.8,9c0,3.4-1.2,6.4-3.8,8.9c-2.6,2.5-5.6,3.7-9,3.7
			c-1.4,0-2.6-0.1-3.5-0.4c-1-0.3-2-0.7-3-1.4L43,60.3L43,60.3z M43.6,43c0,1.6,0.6,2.9,1.8,4.1c1.1,1.2,2.6,1.8,4.2,1.8
			s3.1-0.5,4.2-1.7c1.1-1.1,1.7-2.6,1.7-4.1s-0.6-3-1.7-4.1c-1.1-1.1-2.6-1.8-4.2-1.8s-3.1,0.5-4.2,1.7C44.2,39.9,43.6,41.3,43.6,43
			z"/>
		<circle class="st2" cx="34.1" cy="43.1" r="5.5"/>
	</g>
</g>
</svg>
