<?xml version="1.0" encoding="utf-8"?>
<!-- Generator: Adobe Illustrator 22.0.0, SVG Export Plug-In . SVG Version: 6.00 Build 0)  -->
<svg version="1.1" id="Layer_1" xmlns="http://www.w3.org/2000/svg" xmlns:xlink="http://www.w3.org/1999/xlink" x="0px" y="0px"
	 viewBox="0 0 91 91" style="enable-background:new 0 0 91 91;" xml:space="preserve">
<style type="text/css">
	.st0{fill:url(#SVGID_1_);stroke:#EAEAEA;stroke-miterlimit:10;}
	.st1{fill:#FFFFFF;}
</style>
<g>
	<linearGradient id="SVGID_1_" gradientUnits="userSpaceOnUse" x1="0.5" y1="45.5" x2="90.5" y2="45.5">
		<stop  offset="0" style="stop-color:#A4090E"/>
		<stop  offset="0.3954" style="stop-color:#C31908"/>
		<stop  offset="0.7636" style="stop-color:#D92404"/>
		<stop  offset="1" style="stop-color:#E12802"/>
	</linearGradient>
	<circle class="st0" cx="45.5" cy="45.5" r="45"/>
	<g>
		<path class="st1" d="M25.5,41l19.5,9.2c0.1,0.1,0.3,0.1,0.4,0.1c0.1,0,0.3,0,0.4-0.1L65.5,41c0.4-0.2,0.7-0.6,0.7-1.1
			c0-0.5-0.3-0.9-0.7-1.1l-19.5-8.2c-0.3-0.1-0.5-0.1-0.8,0l-19.5,8.2c-0.4,0.2-0.7,0.6-0.7,1.1C24.9,40.3,25.1,40.8,25.5,41z
			 M45.5,33l16.6,7l-16.6,7.8l-16.6-7.8L45.5,33z"/>
		<path class="st1" d="M25.5,46.2l20,9.4l20-9.4c0.6-0.3,0.8-1,0.6-1.6c-0.2-0.6-0.9-0.9-1.4-0.6l-19.1,9l-19.1-9
			c-0.6-0.3-1.2,0-1.4,0.6C24.7,45.3,25,46,25.5,46.2z"/>
		<path class="st1" d="M25.5,51.1l20,9.4l20-9.4c0.6-0.3,0.8-1,0.6-1.6c-0.2-0.6-0.9-0.9-1.4-0.6l-19.1,9l-19.1-9
			c-0.6-0.3-1.2,0-1.4,0.6C24.7,50.1,25,50.8,25.5,51.1z"/>
	</g>
</g>
</svg>
