<svg xmlns="http://www.w3.org/2000/svg" xmlns:xlink="http://www.w3.org/1999/xlink" width="146" height="150" viewBox="0 0 146 150">
    <defs>
        <path id="a" d="M73 0c34.55 0 63.645 23.363 72.346 55.153-1.846.22-3.606.683-5.366 1.387-2.566 1.026-4.619 2.566-6.415 4.362-1.796 1.796-3.336 4.105-4.362 6.415-1.027 2.566-1.54 5.132-1.54 7.954 0 2.823.513 5.643 1.54 7.955 1.026 2.566 2.566 4.619 4.362 6.415 1.796 1.796 4.105 3.336 6.415 4.362 1.629.686 3.4 1.142 5.22 1.37C136.323 126.894 107.36 150 73 150 38.649 150 9.691 126.906.807 95.397c1.89-.219 3.731-.683 5.419-1.394 2.566-1.026 4.619-2.566 6.415-4.362 1.796-1.796 3.336-4.106 4.362-6.415 1.026-2.566 1.54-5.132 1.54-7.955 0-2.822-.514-5.388-1.54-7.954s-2.566-4.62-4.362-6.415c-1.796-1.796-4.106-3.336-6.415-4.362a21.004 21.004 0 0 0-5.564-1.411C9.37 23.352 38.458 0 73 0z"/>
    </defs>
    <g fill="none" fill-rule="evenodd">
        <g>
            <mask id="b" fill="#fff">
                <use xlink:href="#a"/>
            </mask>
            <use fill="#3E7EC1" xlink:href="#a"/>
            <path fill="#CE243A" stroke="#CE243A" d="M185.034-16.527h33.099v180.132h-33.099v-18.991c-5.132 4.621-10.777 8.727-16.938 11.806-18.216 9.494-40.027 9.494-58.758 0-9.24-4.619-17.192-11.29-24.12-19.245-6.931-8.211-12.317-17.705-16.166-28.485-4.106-10.775-5.902-22.578-5.902-35.151 0-12.317 2.053-24.12 5.902-35.154C72.9 27.608 78.546 18.113 85.218 9.902c6.928-8.21 14.88-14.626 24.12-19.245 18.731-9.494 40.796-9.237 58.758-.256 6.161 3.079 11.806 7.185 16.938 11.803v-18.731z" mask="url(#b)"/>
            <path stroke="#FFF" stroke-width="2" d="M14 75.283h130.352" mask="url(#b)"/>
        </g>
        <path fill="#FFF" d="M75.84 112.244c-7.05 0-13.645-.908-19.785-2.727-6.14-1.821-11.825-4.323-17.055-7.734l10.233-17.055A54.588 54.588 0 0 0 62.65 90.87c4.548 1.362 8.869 2.044 13.19 2.044 2.956 0 4.32-.682 4.32-2.274v-.227c0-.68-.455-1.362-1.592-1.817-1.137-.682-3.41-1.367-7.05-2.274-4.547-1.137-8.64-2.274-12.279-3.641-3.638-1.364-6.595-2.729-9.096-4.548-2.502-1.817-4.548-4.091-5.913-6.593-1.364-2.503-2.046-5.685-2.046-9.325v-.228c0-3.863.682-7.502 2.274-10.46 1.592-2.957 3.638-5.686 6.367-7.732 2.729-2.047 6.14-3.639 10.006-4.776 3.638-1.362 7.96-1.819 12.735-1.819 5.912 0 11.825.682 17.282 2.274 5.458 1.367 10.461 3.411 15.01 6.142l-9.552 17.508c-3.866-2.046-7.96-3.638-12.052-5-4.094-1.137-7.732-1.822-10.916-1.822-2.729 0-4.093.685-4.093 2.274v.227c0 .683.682 1.367 1.82 2.047 1.136.685 3.41 1.365 7.049 2.274 4.548 1.137 8.641 2.274 12.28 3.639 3.638 1.366 6.594 2.73 9.096 4.777 2.501 1.817 4.32 4.091 5.685 6.593 1.364 2.504 2.046 5.685 2.046 9.326v.225c0 7.96-2.728 13.874-8.186 18.192-5.685 4.323-13.417 6.368-23.195 6.368"/>
    </g>
</svg>
