<?xml version="1.0" encoding="utf-8"?>
<!-- Generator: Adobe Illustrator 22.0.0, SVG Export Plug-In . SVG Version: 6.00 Build 0)  -->
<svg version="1.1" id="Layer_1" xmlns="http://www.w3.org/2000/svg" xmlns:xlink="http://www.w3.org/1999/xlink" x="0px" y="0px"
	 viewBox="0 0 91 91" style="enable-background:new 0 0 91 91;" xml:space="preserve">
<style type="text/css">
	.st0{fill:#FFFFFF;stroke:#EAEAEA;stroke-miterlimit:10;}
	.st1{fill:#FDD300;}
	.st2{fill:#121211;}
	.st3{fill:#EB9D21;}
	.st4{fill:none;}
</style>
<g>
	<circle class="st0" cx="45.5" cy="45.5" r="45"/>
	<g>
		<g>
			<g>
				<g>
					<polygon class="st1" points="44.3,28 54.3,28 52.2,37.5 60.3,37.5 42.1,62.8 44.4,49.8 30.3,49.8 33.4,37 					"/>
				</g>
			</g>
			<g>
				<g>
					<path class="st2" d="M40.9,65.7l2.7-15.2H29.4l3.4-13.8L44,27.3h11.1L53,36.7h8.6L40.9,65.7z M31.2,49.1h14.1l-1.9,10.7
						L59,38.2h-7.7l2.2-9.4h-8.9L34,37.5L31.2,49.1z"/>
				</g>
			</g>
		</g>
		<g>
			<g>
				<g>
					<g>
						<polygon class="st3" points="42.1,37 33.4,37 44.3,28 						"/>
					</g>
				</g>
			</g>
			<g>
				<g>
					<g>
						<path class="st2" d="M42.7,37.7h-10l0.6-1.1l10.4-8.8l1.4-0.4L42.7,37.7z M35.4,36.3h6.3l1.5-6.3L35.4,36.3z"/>
					</g>
				</g>
			</g>
		</g>
		<g>
			<g>
				<g>
					<line class="st4" x1="35.7" y1="41.2" x2="47.7" y2="41.2"/>
				</g>
			</g>
			<g>
				<g>
					<rect x="35.7" y="40.7" class="st2" width="12" height="1.1"/>
				</g>
			</g>
		</g>
		<g>
			<g>
				<g>
					<line class="st4" x1="34.8" y1="45.3" x2="46.2" y2="45.3"/>
				</g>
			</g>
			<g>
				<g>
					<rect x="34.8" y="44.7" class="st2" width="11.4" height="1.1"/>
				</g>
			</g>
		</g>
	</g>
</g>
</svg>
