<svg xmlns="http://www.w3.org/2000/svg" width="152" height="152" viewBox="0 0 152 152">
    <defs>
        <linearGradient id="prefix__a" x1="46.455%" x2="29.604%" y1="52.229%" y2="-5.537%">
            <stop offset="0%" stop-color="#FFF" stop-opacity="0"/>
            <stop offset="99.91%" stop-color="#231F20"/>
        </linearGradient>
        <linearGradient id="prefix__b" x1="51.782%" x2="35.435%" y1="30.136%" y2="139.728%">
            <stop offset="0%" stop-color="#FFF" stop-opacity="0"/>
            <stop offset="99.91%" stop-color="#231F20"/>
        </linearGradient>
        <linearGradient id="prefix__c" x1="37.605%" x2="79.022%" y1="10.726%" y2="139.459%">
            <stop offset="0%" stop-color="#FFF" stop-opacity="0"/>
            <stop offset="99.91%" stop-color="#231F20"/>
        </linearGradient>
        <linearGradient id="prefix__d" x1="9.105%" x2="122.096%" y1="61.035%" y2="35.845%">
            <stop offset="0%" stop-color="#FFF" stop-opacity="0"/>
            <stop offset="99.91%" stop-color="#231F20"/>
        </linearGradient>
        <linearGradient id="prefix__e" x1="49.263%" x2="120.56%" y1="53.06%" y2="38.365%">
            <stop offset="0%" stop-color="#FFF" stop-opacity="0"/>
            <stop offset="99.91%" stop-color="#231F20"/>
        </linearGradient>
        <linearGradient id="prefix__f" x1="51.165%" x2="57.933%" y1="51.404%" y2="49.162%">
            <stop offset="0%" stop-color="#FFF" stop-opacity="0"/>
            <stop offset="99.91%" stop-color="#231F20"/>
        </linearGradient>
    </defs>
    <g fill="none" fill-rule="evenodd" transform="translate(1 1)">
        <circle cx="75" cy="75" r="75" fill="#010101" stroke="#EAEAEA"/>
        <g fill-rule="nonzero">
            <path fill="#FFF" d="M96.6 51.5c-1.9-4.7-5.5-9.5-10-12.4-1.1-.7-2.2-1.3-3.3-1.8 3.3-5.9 4.2-13.1 1.9-19.9-4.3-13-18.4-20.1-31.3-15.7-.1 0-.3.1-.4.1-.2 0-.3.1-.5.1L5.6 17.8c-2 .7-3.4 1.8-4.1 3.4-.7 1.6-.7 3.3-.1 5 .5 1.6 1.5 2.9 2.8 3.9.4.3.9.6 1.3.8.5.2 1.1.5 2 .9.9.4 1.6.6 2.1.8.5.2 1.1.4 2 .7 1.7.6 2.8 1.3 3.4 1.9.5.6 1.1 1.7 1.6 3.2l4.3 12.8-3.9 1.2c-2 .7-3.4 1.8-4.1 3.4-.7 1.6-.7 3.3-.1 5 .5 1.6 1.5 2.9 2.8 3.9.4.3.9.6 1.3.8.5.2 1.1.5 2 .9.9.4 1.6.6 2.1.8.5.2 1.1.4 2 .7 1.7.6 2.8 1.3 3.4 1.9.5.6 1.1 1.7 1.6 3.2l6.2 18.8c.4 1.3 1.2 2.4 2.1 3.2 1 .8 2.1 1.2 3.3 1.4 1.2.2 2.4.1 3.5-.3 1.6-.5 2.9-1.5 3.7-3 .8-1.4.9-3.1.2-5.1l-7.8-23.4c-.5-1.5-.9-2.6-1.4-3.2-.4-.6-1-1-1.7-1.1l12.3-4.1.2-.1c-1.5 9.5 2.5 19.4 11.1 24.9 10.4 6.7 23.5 4.7 31.3-3.7.2-.2.3-.4.4-.4.4.5 1.2 1.5 2.9 1.9.2 0 .4.1.6.1 1.2.2 2.7-.3 3.9-.6 1.6-.5 2.9-1.5 3.7-3 .8-1.4.9-3.2.2-5.2l-6.1-18.6zM33.4 47l-5.6-17c-.5-1.5-.9-2.6-1.4-3.2-.4-.6-1-1-1.7-1.1L37 21.6h.1c-.6 3.8-.3 7.7 1 11.6 1.3 4 3.6 7.5 6.5 10.2L33.4 47zM58 14.3c6.1-2 12.7 1.3 14.7 7.4 2 6.1-1.3 12.6-7.3 14.7-.3.1-.6.2-1 .3h-.1c-5.8 1.3-11.8-2-13.7-7.7-2-6.1 1.3-12.7 7.4-14.7zm18.9 56.8c-6.1 2-12.8-1.3-14.8-7.4-2-6.1 1.3-12.8 7.4-14.8 6.1-2 12.8 1.3 14.8 7.4 2 6.2-1.3 12.8-7.4 14.8z" transform="translate(23 27)"/>
            <path fill="url(#prefix__a)" d="M50.6 28.8c-1.7-5 .5-11 5.4-13.7l-18.8 6.3c-.6 3.7-.3 7.7 1 11.5 1.5 4.5 4.1 8.2 7.5 11.1l.4-.1c.3.4.5.6.5.6L59 40.2l-.4-.8c2.3.5 4.7.5 7-.2l-.9-2.8c-6 1.6-12.2-1.7-14.1-7.6z" transform="translate(23 27)"/>
            <path fill="url(#prefix__b)" d="M63.3 13.6c4.3.6 8.1 3.6 9.5 8 2 6.1-1.3 12.8-7.4 14.8 10-3.1 19 1.6 17.9 1.1 3.3-5.9 4.2-13.1 2-20-1.2-3.6-3.1-6.7-5.5-9.3l-16.5 5.4z" transform="translate(23 27)"/>
            <path fill="url(#prefix__c)" d="M29.1 33.7L16.4 37.9 20.8 51.2 33.4 47z" transform="translate(23 27)"/>
            <path fill="url(#prefix__d)" d="M65 36.4l-36.1 12L35 60.7 48.7 56c1.4-8.7 7.7-16.6 16.3-19.6z" transform="translate(23 27)"/>
            <g>
                <path fill="url(#prefix__e)" d="M40.6 15.8L35.5.1c1.3 5.8-1.9 12.1-7.6 14-6.1 2-12.8-1.3-14.8-7.4-.1-.3-.2-.7-.3-1L.4 9.8C2 15.4 5.6 20.5 10.9 23.9c10.2 6.5 23.2 5.1 31.7-4.1 0 0 1 1.4 2.5 1.8-.7-.1-3-.8-4.5-5.8z" transform="translate(23 27) translate(49 57)"/>
                <path fill="url(#prefix__f)" d="M45 21.6h0z" transform="translate(23 27) translate(49 57)"/>
            </g>
        </g>
    </g>
</svg>
