<svg xmlns="http://www.w3.org/2000/svg" xmlns:xlink="http://www.w3.org/1999/xlink" width="152" height="152" viewBox="0 0 152 152">
    <defs>
        <path id="1geyhz9dua" d="M0.012 0.024L7.393 0.024 7.393 7.369 0.012 7.369z"/>
    </defs>
    <g fill="none" fill-rule="evenodd" transform="translate(1 1)">
        <circle cx="75" cy="75" r="75" fill="#FFF" stroke="#EAEAEA"/>
        <g>
            <path fill="#000" d="M0 0L0 18.398 7.333 18.398 7.333 17.091 1.307 17.091 1.307 1.307 114.598 1.307 114.598 17.091 108.061 17.091 108.061 18.398 115.905 18.398 115.905 0z" transform="translate(17 66)"/>
            <g>
                <path fill="#F4CC08" d="M53.127 2.971c1.818 0 3.292 1.474 3.292 3.293 0 1.818-1.474 3.292-3.292 3.292-1.818 0-3.292-1.474-3.292-3.292 0-1.819 1.474-3.293 3.292-3.293" transform="translate(17 66) translate(9.865 8.177)"/>
                <path fill="#000" d="M3.066 4.909L3.91 7.5 5.36 3.257 7.202 3.257 8.593 7.5 9.449 4.909 8.641 4.909 8.641 3.268 12.028 3.268 12.028 4.909 11.172 4.909 9.342 10.388 7.404 10.388 6.05 6.263 4.695 10.388 2.757 10.388.915 4.909.012 4.909.012 3.268 3.839 3.268 3.839 4.909zM17.471 3.102c.713 0 1.248.214 1.605.642.356.428.535 1.058.535 1.878v3.03h1.046v1.617h-3.28v-4.54c0-.286-.06-.5-.167-.618-.107-.12-.285-.19-.547-.19-.345 0-.737.142-1.177.427v3.304h.987v1.617h-4.35V8.652h1.13V1.818h-1.13V.214h3.363v3.613c.725-.475 1.391-.725 1.985-.725M24.9 1.272c0 .356-.12.653-.369.88-.238.237-.535.344-.867.344-.333 0-.63-.119-.868-.369-.238-.237-.369-.534-.369-.867 0-.333.12-.618.369-.868.238-.237.535-.368.868-.368.332 0 .618.119.867.368.238.262.369.547.369.88zm.891 7.392v1.617h-4.326V8.664h1.07V4.91h-1.07v-1.64h3.292v5.395h1.034zM30.307 3.268v1.64h-1.295v3.067c0 .214.047.38.13.487.084.107.238.167.476.167.19 0 .428-.048.69-.143v1.557c-.607.238-1.165.357-1.7.357-.606 0-1.07-.155-1.367-.464-.309-.309-.452-.749-.452-1.307V4.92h-.891V3.28h.891V2.187L29.024.582v2.686h1.283zM34.788 4.588c-.404 0-.725.119-.963.344-.237.226-.392.583-.451 1.058h2.924c-.06-.416-.238-.76-.512-1.022-.285-.25-.606-.38-.998-.38m3.768 2.65h-5.23c.048.535.238.963.559 1.284.32.309.725.475 1.236.475.558 0 1.093-.273 1.628-.832l1.735.559c-.38.57-.855 1.01-1.426 1.295-.57.286-1.236.428-2.008.428-.773 0-1.462-.142-2.057-.44-.594-.297-1.057-.7-1.378-1.236-.333-.535-.488-1.165-.488-1.878 0-.713.167-1.354.512-1.937.344-.582.796-1.034 1.378-1.355.583-.333 1.212-.487 1.89-.487.737 0 1.379.166 1.925.51.547.346.975.821 1.26 1.451.297.618.452 1.343.464 2.163M43.809 8.652c.428 0 .76-.178 1.01-.534.238-.357.369-.82.369-1.415 0-.582-.12-1.022-.369-1.33-.237-.31-.57-.452-.986-.452-.44 0-.773.178-1.022.522-.25.345-.369.809-.369 1.38 0 .534.131.974.38 1.318.238.345.571.511.987.511m.618-5.55c.606 0 1.13.166 1.593.5.463.332.82.772 1.07 1.33.249.559.38 1.165.38 1.807 0 .654-.12 1.26-.369 1.818-.25.559-.594 1.01-1.046 1.331-.451.333-.974.488-1.569.488-.736 0-1.426-.31-2.044-.915v.808h-3.446V8.652h1.212V1.818h-1.212V.214h3.446v3.85c.559-.641 1.224-.962 1.985-.962" transform="translate(17 66) translate(9.865 8.177)"/>
                <g transform="translate(17 66) translate(9.865 8.177) translate(48.492 3.09)">
                    <mask id="qmswynpsxb" fill="#fff">
                        <use xlink:href="#1geyhz9dua"/>
                    </mask>
                    <path fill="#000" d="M3.696 5.61c.44 0 .773-.167 1.022-.511.25-.345.369-.832.369-1.462 0-.594-.119-1.058-.369-1.403-.25-.332-.594-.499-1.034-.499-.451 0-.784.167-1.022.5-.226.332-.344.831-.344 1.497 0 .57.13 1.022.38 1.367.25.344.582.51.998.51m3.697-1.925c0 .702-.167 1.332-.5 1.89-.332.559-.772.999-1.33 1.32-.56.32-1.177.475-1.855.475-.713 0-1.343-.155-1.913-.476-.57-.32-.999-.748-1.308-1.319-.309-.558-.475-1.188-.475-1.89 0-.689.166-1.319.487-1.877C.82 1.248 1.26.808 1.83.499 2.4.18 3.02.024 3.708.024c.701 0 1.331.154 1.89.475.559.321.998.76 1.32 1.308.32.558.475 1.176.475 1.877" mask="url(#qmswynpsxb)"/>
                </g>
                <path fill="#000" d="M59.902 8.997c.404 0 .867-.238 1.402-.725v-.63c-.475-.309-.915-.463-1.32-.463-.32 0-.57.071-.736.226-.166.154-.25.368-.25.641 0 .63.297.951.904.951m3.637-2.924v2.591h1.129v1.617h-3.364v-.547c-.642.44-1.272.654-1.913.654-.773 0-1.391-.202-1.854-.595-.464-.392-.69-.927-.69-1.604 0-.713.262-1.284.773-1.712.523-.427 1.212-.641 2.068-.641.297 0 .558.035.796.095s.5.178.808.333v-.56c0-.356-.107-.64-.333-.855-.225-.214-.558-.32-.998-.32-.487 0-.915.19-1.284.558l-1.806-.333c.547-1.105 1.676-1.652 3.387-1.652 1.177 0 2.009.238 2.508.725.523.487.773 1.236.773 2.246M71.383 3.185V5.29c-.618.036-1.106.143-1.462.285-.369.155-.642.416-.844.797-.202.368-.297.903-.297 1.604v.69h1.39v1.616h-4.92V8.664h1.296V4.91H65.32v-1.64h3.269V5.05c.166-.535.463-.986.915-1.343.44-.356.998-.535 1.652-.535.107 0 .178 0 .226.012M75.661 8.629c.44 0 .773-.179 1.023-.523.25-.345.368-.797.368-1.343 0-.547-.13-.999-.38-1.343-.25-.345-.595-.523-1.034-.523-.428 0-.761.178-1.01.523-.25.344-.369.784-.369 1.33 0 .548.119.987.368 1.344.262.356.607.535 1.034.535zm4.755.035v1.617H77.04v-.832c-.642.63-1.32.939-2.044.939-.594 0-1.117-.155-1.569-.476-.452-.32-.808-.76-1.07-1.307-.261-.559-.38-1.177-.38-1.854 0-.701.13-1.331.38-1.878.262-.547.618-.986 1.082-1.295.463-.31.986-.464 1.557-.464.82 0 1.497.32 2.032.95V1.83h-1.093V.226h3.328v8.438h1.153zM84.575 1.272c0 .356-.118.653-.368.88-.238.237-.535.344-.868.344-.332 0-.63-.119-.867-.369-.238-.237-.369-.534-.369-.867 0-.333.12-.618.369-.868.237-.237.535-.368.867-.368.333 0 .618.119.868.368.25.262.368.547.368.88zm.904 7.392v1.617h-4.327V8.664h1.07V4.91h-1.07v-1.64h3.293v5.395h1.034zM93.786 5.812v2.852h1.058v1.617h-3.292V5.99c0-.334-.047-.571-.155-.714-.095-.154-.273-.226-.499-.226-.427 0-.855.155-1.283.464v3.161h1.093v1.617h-4.385V8.676h1.07V4.921h-1.07V3.28h3.28v.665c.665-.5 1.355-.749 2.056-.749.701 0 1.224.226 1.593.666.356.416.534 1.07.534 1.949" transform="translate(17 66) translate(9.865 8.177)"/>
            </g>
        </g>
    </g>
</svg>
