<svg xmlns="http://www.w3.org/2000/svg" width="152" height="152" viewBox="0 0 152 152">
    <g fill="none" fill-rule="evenodd" transform="translate(1 1)">
        <circle cx="75" cy="75" r="75" fill="#C5E4CF" stroke="#EAEAEA"/>
        <path fill="#F9B6B7" d="M88.545 78.793c-3.553-2.552-5.405-7.257-5.405-11.532 0-2.705.708-5.691 3.278-5.691 2.845 0 3.545 2.986 3.545 7.826 0 3.564-.565 6.41-1.418 9.397M19.78 52.023c3.275 0 3.555 2.85 3.555 3.708 0 3.989-4.123 9.535-12.672 9.82-.71-6.971 4.27-13.528 9.117-13.528m84.147 21.933c-2.705 4.419-8.265 8.837-13.665 5.984.988-3.699 1.701-7.972 1.701-11.257 0-5.398-1.281-8.678-5.838-8.678-2.562 0-6.26 2.988-6.26 7.541 0 5.555 3.418 10.399 8.255 13.099-3.408 10.538-9.832 18.366-11.683 18.366-2.985 0-3.409-13.81-3.554-16.791-5.266-3.28-4.696-2.984-5.121-2.984-.859 0-1.282.702-1.422 1.409-1.283 3.993-6.123 13.38-8.55 13.38-.852 0-1.137-.275-1.282-1.429-.848-4.97 3.28-17.226 5.13-22.058-.993-.857-2.853-2.28-4.266-2.28-.719 0-1.284.29-1.569.865-6.976 6.115-15.656 10.383-24.918 10.383-8.97 0-18.082-4.553-19.933-12.245 9.108-.426 14.093-6.406 14.093-11.53 0-3.278-2.14-5.416-5.265-5.416-5.983 0-11.533 7.546-10.825 15.236-2.345-.163-4.62-.773-6.745-1.738-.023.563-.098 1.14-.22 1.727 2.292.983 4.735 1.591 7.245 1.721 1.997 9.115 12.248 13.952 21.65 13.952 8.68 0 16.945-3.56 23.777-8.963-3.135 9.685-6.12 23.631 2.99 23.631 3.133 0 8.115-8.963 8.968-12.25.713 8.12 2.845 18.665 10.68 16.799C82.57 99.01 87.982 87.626 89.837 81.5c6.27 2.704 12.513-1.853 14.948-5.981.14-.15.14-.282.14-.43 0-.287-.425-.572-.998-1.134"/>
        <path fill="#F9B6B7" d="M137.428 87.14c-2.946 1.427-4.441-1.016-4.815-1.788-1.736-3.592-.441-10.38 7.13-14.358 3.674 5.965 2.049 14.035-2.315 16.146m10.68-18.266a10.476 10.476 0 0 1-.553-1.65c-2.493.113-4.957.63-7.273 1.608-5.769-7.335-17.102-7.225-25.564-3.128-4.628 2.24-8.575 5.543-11.815 9.491.489.284.964.604 1.412.959 3.065-3.7 6.778-6.799 11.145-8.912 8.073-3.908 18.258-3.782 23.277 2.337-8.012 4.353-9.894 11.905-7.664 16.518 1.43 2.952 4.289 3.943 7.1 2.583 5.385-2.606 7.094-11.818 3.105-18.43 2.182-.876 4.497-1.318 6.83-1.376"/>
        <path fill="#EF4D85" d="M88.545 78.793c-3.553-2.552-5.405-7.257-5.405-11.532 0-2.705.708-5.691 3.278-5.691 2.845 0 3.545 2.986 3.545 7.826 0 3.564-.565 6.41-1.418 9.397m2.318 1.413c-.2-.086-.401-.161-.601-.268.988-3.698 1.703-7.97 1.703-11.255 0-5.398-1.283-8.678-5.84-8.678-2.562 0-6.26 2.988-6.26 7.541 0 5.555 3.418 10.399 8.255 13.099-3.408 10.538-9.83 18.366-11.683 18.366-2.984 0-3.409-13.81-3.554-16.791-5.265-3.28-4.696-2.984-5.12-2.984-.858 0-1.283.702-1.423 1.409-.078.245-.172.51-.275.791.245.777.398 1.619.453 2.532.035-.112.075-.233.102-.337.713 8.12 2.845 18.665 10.68 16.799C82.57 99.01 87.982 87.626 89.837 81.5c.226.097.451.165.678.244.078-.52.188-1.035.348-1.539"/>
        <path fill="#EF4D85" d="M86.418 61.84c-2.715 0-3.008 3.79-3.008 5.42 0 4.414 1.944 8.714 4.982 11.08.921-3.318 1.3-5.936 1.3-8.943 0-5.44-.917-7.558-3.273-7.558zM88.7 79.236l-.313-.225c-3.352-2.406-5.519-7.02-5.519-11.751 0-3.79 1.294-5.964 3.55-5.964 3.354 0 3.815 3.894 3.815 8.1 0 3.175-.413 5.919-1.428 9.47l-.105.37zm-21.948 2.805l.138 1.567c.733 8.365 2.567 13.66 5.45 15.738 1.373.99 3.02 1.267 4.897.82 2.845-.766 5.583-4.543 7.378-7.575 2.383-4.023 4.127-8.408 4.963-11.17l.089-.291.278.12c.117.051.234.093.355.135.062-.357.142-.699.233-1.024a4.943 4.943 0 0 1-.398-.185l-.192-.1.057-.208c1.06-3.97 1.694-8.152 1.694-11.187 0-5.971-1.614-8.406-5.569-8.406-1.248 0-2.74.758-3.893 1.978a7.666 7.666 0 0 0-2.097 5.293c0 5.139 3.112 10.065 8.117 12.862l.193.108-.068.21c-3.467 10.72-9.907 18.554-11.94 18.554-2.035 0-2.773-5.134-3.015-6.82-.51-3.555-.692-7.622-.78-9.577l-.022-.51c-.928-.578-1.67-1.042-2.267-1.415-2.148-1.343-2.351-1.47-2.48-1.457a1.987 1.987 0 0 1-.11.004c-.831 0-1.086.833-1.158 1.191l-.007.03c-.065.204-.145.432-.248.717.109.358.2.73.27 1.11l.132-.512zm8.802 18.874a5.896 5.896 0 0 1-3.53-1.129c-2.897-2.09-4.716-6.935-5.544-14.79l-.147.467-.086-1.48a10.196 10.196 0 0 0-.44-2.467l-.029-.088.032-.085c.115-.31.198-.555.267-.768.205-1.009.835-1.612 1.686-1.612.027 0 .05-.002.07-.003.312-.022.31-.022 2.809 1.54.62.388 1.4.876 2.385 1.488l.12.075.006.142.03.655c.087 1.945.267 5.993.774 9.521.795 5.532 1.895 6.359 2.48 6.359 1.643 0 7.943-7.575 11.356-17.97-2.393-1.375-4.41-3.259-5.841-5.459-1.542-2.368-2.357-5.055-2.357-7.765 0-4.77 3.867-7.813 6.53-7.813 5.383 0 6.11 4.523 6.11 8.948 0 3.024-.617 7.162-1.655 11.11.073.034.145.064.222.095.056.024.113.047.168.072l.225.097-.073.233a9.42 9.42 0 0 0-.339 1.495l-.048.323-.308-.106-.17-.057-.247-.085c-.877 2.802-2.6 7.077-4.928 11.01-1.847 3.118-4.683 7.007-7.712 7.823a7.922 7.922 0 0 1-1.817.224z"/>
    </g>
</svg>
